<svg xmlns="http://www.w3.org/2000/svg" width="92" height="92" viewBox="0 0 46 46"><g><g><path fill="#747d8b" d="M19.786 23a1.071 1.071 0 1 0 0-2.143 1.071 1.071 0 0 0 0 2.143zm6.428 0a1.071 1.071 0 1 0 0-2.143 1.071 1.071 0 0 0 0 2.143zm-3.212 5.714c2.028 0 3.734-1.318 4.269-3.117a.357.357 0 0 0-.35-.454H19.08a.357.357 0 0 0-.35.454c.54 1.799 2.246 3.117 4.273 3.117zM23 14.43a8.528 8.528 0 0 1 6.06 2.51 8.632 8.632 0 0 1 1.838 2.725A8.528 8.528 0 0 1 31.57 23a8.528 8.528 0 0 1-2.51 6.06 8.631 8.631 0 0 1-2.725 1.838A8.528 8.528 0 0 1 23 31.57a8.528 8.528 0 0 1-6.06-2.51 8.631 8.631 0 0 1-1.838-2.725A8.528 8.528 0 0 1 14.43 23a8.528 8.528 0 0 1 2.51-6.06 8.632 8.632 0 0 1 2.725-1.838A8.528 8.528 0 0 1 23 14.43zM23 33a9.95 9.95 0 0 0 7.071-2.929 10.076 10.076 0 0 0 2.143-3.179A9.95 9.95 0 0 0 33 23a9.95 9.95 0 0 0-2.929-7.071 10.073 10.073 0 0 0-3.179-2.143A9.954 9.954 0 0 0 23 13a9.953 9.953 0 0 0-7.071 2.929 10.071 10.071 0 0 0-2.143 3.179A9.953 9.953 0 0 0 13 23a9.954 9.954 0 0 0 2.929 7.071 10.071 10.071 0 0 0 3.179 2.143A9.95 9.95 0 0 0 23 33z"/><path fill="none" stroke="#000" stroke-miterlimit="20" stroke-width="1.25" d="M19.786 23a1.071 1.071 0 1 0 0-2.143 1.071 1.071 0 0 0 0 2.143zm6.428 0a1.071 1.071 0 1 0 0-2.143 1.071 1.071 0 0 0 0 2.143zm-3.212 5.714c2.028 0 3.734-1.318 4.269-3.117a.357.357 0 0 0-.35-.454H19.08a.357.357 0 0 0-.35.454c.54 1.799 2.246 3.117 4.273 3.117zM23 14.43a8.528 8.528 0 0 1 6.06 2.51 8.632 8.632 0 0 1 1.838 2.725A8.528 8.528 0 0 1 31.57 23a8.528 8.528 0 0 1-2.51 6.06 8.631 8.631 0 0 1-2.725 1.838A8.528 8.528 0 0 1 23 31.57a8.528 8.528 0 0 1-6.06-2.51 8.631 8.631 0 0 1-1.838-2.725A8.528 8.528 0 0 1 14.43 23a8.528 8.528 0 0 1 2.51-6.06 8.632 8.632 0 0 1 2.725-1.838A8.528 8.528 0 0 1 23 14.43zM23 33a9.95 9.95 0 0 0 7.071-2.929 10.076 10.076 0 0 0 2.143-3.179A9.95 9.95 0 0 0 33 23a9.95 9.95 0 0 0-2.929-7.071 10.073 10.073 0 0 0-3.179-2.143A9.954 9.954 0 0 0 23 13a9.953 9.953 0 0 0-7.071 2.929 10.071 10.071 0 0 0-2.143 3.179A9.953 9.953 0 0 0 13 23a9.954 9.954 0 0 0 2.929 7.071 10.071 10.071 0 0 0 3.179 2.143A9.95 9.95 0 0 0 23 33z"/></g></g></svg>